0
SECTION
2
HEADER
0
ENDSEC
0
SECTION
2
TABLES
0
TABLE
2
LAYER
70
8
0
LAYER
2
ROOM
70
0
62
7
6
CONTINUOUS
0
LAYER
2
CAPTURE_VOLUME
70
0
62
7
6
CONTINUOUS
0
LAYER
2
TRUSS
70
0
62
7
6
CONTINUOUS
0
LAYER
2
STANDS
70
0
62
7
6
CONTINUOUS
0
LAYER
2
CAMERAS
70
0
62
7
6
CONTINUOUS
0
LAYER
2
FRUSTUMS
70
0
62
7
6
CONTINUOUS
0
LAYER
2
WEAK_ZONES
70
0
62
7
6
CONTINUOUS
0
LAYER
2
REDUNDANT_ANGLES
70
0
62
7
6
CONTINUOUS
0
ENDTAB
0
ENDSEC
0
SECTION
2
ENTITIES
0
LINE
8
ROOM
10
-8991.6
20
-8686.8
30
0
11
8991.6
21
-8686.8
31
0
0
LINE
8
ROOM
10
8991.6
20
-8686.8
30
0
11
8991.6
21
8686.8
31
0
0
LINE
8
ROOM
10
8991.6
20
8686.8
30
0
11
-8991.6
21
8686.8
31
0
0
LINE
8
ROOM
10
-8991.6
20
8686.8
30
0
11
-8991.6
21
-8686.8
31
0
0
CIRCLE
8
CAPTURE_VOLUME
10
0
20
0
30
0
40
1450
0
LINE
8
TRUSS
10
-3500
20
0
30
0
11
3500
21
0
31
0
0
CIRCLE
8
STANDS
10
-2600
20
-2800
30
0
40
80
0
CIRCLE
8
STANDS
10
2600
20
-2800
30
0
40
80
0
CIRCLE
8
CAMERAS
10
3800
20
0
30
0
40
55
0
LINE
8
FRUSTUMS
10
3800
20
0
30
0
11
0
21
0
31
0
0
CIRCLE
8
CAMERAS
10
3510.742
20
1454.197
30
0
40
55
0
LINE
8
FRUSTUMS
10
3510.742
20
1454.197
30
0
11
0
21
0
31
0
0
CIRCLE
8
CAMERAS
10
2687.006
20
2687.006
30
0
40
55
0
LINE
8
FRUSTUMS
10
2687.006
20
2687.006
30
0
11
0
21
0
31
0
0
CIRCLE
8
CAMERAS
10
1454.197
20
3510.742
30
0
40
55
0
LINE
8
FRUSTUMS
10
1454.197
20
3510.742
30
0
11
0
21
0
31
0
0
CIRCLE
8
CAMERAS
10
0
20
3800
30
0
40
55
0
LINE
8
FRUSTUMS
10
0
20
3800
30
0
11
0
21
0
31
0
0
CIRCLE
8
CAMERAS
10
-1454.197
20
3510.742
30
0
40
55
0
LINE
8
FRUSTUMS
10
-1454.197
20
3510.742
30
0
11
0
21
0
31
0
0
CIRCLE
8
CAMERAS
10
-2687.006
20
2687.006
30
0
40
55
0
LINE
8
FRUSTUMS
10
-2687.006
20
2687.006
30
0
11
0
21
0
31
0
0
CIRCLE
8
CAMERAS
10
-3510.742
20
1454.197
30
0
40
55
0
LINE
8
FRUSTUMS
10
-3510.742
20
1454.197
30
0
11
0
21
0
31
0
0
CIRCLE
8
CAMERAS
10
-3800
20
0
30
0
40
55
0
LINE
8
FRUSTUMS
10
-3800
20
0
30
0
11
0
21
0
31
0
0
CIRCLE
8
CAMERAS
10
-3510.742
20
-1454.197
30
0
40
55
0
LINE
8
FRUSTUMS
10
-3510.742
20
-1454.197
30
0
11
0
21
0
31
0
0
CIRCLE
8
CAMERAS
10
-2687.006
20
-2687.006
30
0
40
55
0
LINE
8
FRUSTUMS
10
-2687.006
20
-2687.006
30
0
11
0
21
0
31
0
0
CIRCLE
8
CAMERAS
10
-1454.197
20
-3510.742
30
0
40
55
0
LINE
8
FRUSTUMS
10
-1454.197
20
-3510.742
30
0
11
0
21
0
31
0
0
CIRCLE
8
CAMERAS
10
-0
20
-3800
30
0
40
55
0
LINE
8
FRUSTUMS
10
-0
20
-3800
30
0
11
0
21
0
31
0
0
CIRCLE
8
CAMERAS
10
1454.197
20
-3510.742
30
0
40
55
0
LINE
8
FRUSTUMS
10
1454.197
20
-3510.742
30
0
11
0
21
0
31
0
0
CIRCLE
8
CAMERAS
10
2687.006
20
-2687.006
30
0
40
55
0
LINE
8
FRUSTUMS
10
2687.006
20
-2687.006
30
0
11
0
21
0
31
0
0
CIRCLE
8
CAMERAS
10
3510.742
20
-1454.197
30
0
40
55
0
LINE
8
FRUSTUMS
10
3510.742
20
-1454.197
30
0
11
0
21
0
31
0
0
ENDSEC
0
EOF
